<svg xmlns="http://www.w3.org/2000/svg" width="45" height="45" viewBox="0 0 45 24"><path d="m14.135.002-.14.002-.03.004-.13.047-.112.084-.08.113-.016.041-.04.133v.076l.003.139.031.162.08.388.033.164-.058.045-.08.114-.04.134-.015.069-.006.123.01.142.002.13.025.132.026.139-.002-.12.008.188-.004.274-.004.32.006.273-.022.217-.07.194.025-.084-.101.17-.03.097.002.104.033.095.063.082.082.059.098.027h.017l.08.834.143.71.127.39.047.133.084.11.068.083.113.08.133.041.14-.004.134-.045.109-.086.08-.113.04-.135.01-.074.522-.096.98-.336.114-.04 1.357-.608.866-.478.44-.368.077-.056.229-.387.049-.068.097-.461.018-.057v-.059l-.022-.054-.035-.045-.049-.035-.054-.018h-.059l-.055.022-.046.035-.034.047-.207.35-.263.282-.405.274-.886.437-1.334.555-.916.28-.037.003-.057-.068-.084-.06-.102-.03h-.054l.01-.85-.005-.138-.105-1.117-.1-.563.02.055.084.111.113.08.117.057.135.04.219.02.139-.004.328-.02.478-.06.639-.06-.14.002.628-.018.39.031-.099.168-.033.05-.018.058v.058l.022.059.035.049.049.031.057.02.06-.002.057-.022.047-.035.199-.08.154-.082.104-.082.06-.088.057-.088.033-.11-.004-.113.012-.1-.041-.112-.072-.096-.067-.1-.101-.072-.213-.096-.125-.037-.446-.062-.29-.002.103-.03.545-.16.133-.049.398-.171.32-.202.272-.183.193-.127.104-.068.111-.086.078-.114.041-.133-.002-.14-.047-.131-.084-.111-.005-.008-.116-.076-.133-.043-.14.004-.131.047-.17.066-.006.002-.355.121-.883.254-1.018.215-.734.054-.559-.074-.314-.107-.272-.15-.146-.104-.135-.117-.068-.07-.041-.034-.115-.076zm-3.356.455-.138.004-.012.002-.133.045-.11.084-.08.113-.04.135.004.139.013.085.026.16.043.286.039.263.035.4.13 1.157.034.184-.01.222-.068.4v.003l-.082.263-.2.342-.423.432-.522.375-.04.023-.077-.207-.207-.58.047.127-.12-.37-.046-.132-.117-.29-.137-.26-.127-.16-.078-.104-.067-.04.077.1-.03-.021.041.113-.033-.04.002.114-.02-.03-.01.034-.001-.094-.03-.09.01-.054-.062-.084-.088-.06-.102-.032-.105.004-.102.033-.084.065-.058.088-.032.1-.03.023.003.115-.008.045.04.113-.005.037.057.076v.006l-.017-.023.017.031-.01.146.002.088-.039.22.033.097.065.084.086.06.1.028h.08l.076.224.045.131.222.572.139.346-.002.006-.03.084-.042.064-.047.07-.057.067-.025.084-.076.098.002.103.033.098.062.082.082.059.102.03.101-.003.098-.033.084-.065.01-.013.4.921-.04-.12.09.236.036.148.057.213.025.092.065.086.09.06.1.028h.107l.1-.036.052-.003.09-.07.064-.093.033-.107.018-.123v-.121l-.14-.451-.042-.12-.41-1.023-.004-.01.15-.074.628-.416.105-.082.488-.469.045-.062.074.312.204.645.113.267.035.069v-.043l.02.056.01.07.066.085.086.062.015.032.11.03.113-.001.107-.037.092-.069.065-.093.033-.11-.002-.111v-.074l-.076-.276-.172-.65-.211-1.018-.149-.888.006-.127-.002-.137-.062-.63-.115-.753-.047-.314-.024-.291-.015-.303-.026-.1-.047-.132-.084-.11-.037-.045-.115-.078zm13.086.176-.129.012-.23.013-.123.055-.153.058-.103.092-.07.117-.067.127-.03.14.015.138.037.195.054.13.194.278.092.106.345.34.485.373.593.396.637.406.621.397.54.39.284.32.15.391.03.387-.004.067-.226.628-.032.137.008.147.014.134.055.131.09.108.12.068.135.031.139-.013.129-.053.105-.094.116-.187.072-.12.1-.333.03-.135.02-.244.078-.217.787-1.916.577-1.436.074-.24 1.592.145 1.033.12-.184.128-.06.054-.14.266-.03.049-.016.058.004.032-.207.142-.1.09-.4.406-.232.373-.07.12-.085.331-.029.135.01.14.04.333.055.127.186.299.092.105.35.235.12.072.5.15.135.03.614.033.138-.012.692-.102.103-.035-.232.557-.03.137-.1.546.013.137.037.254.056.127.09.104.096.056.117.07.133.03.133-.014.125-.05.187-.167.1-.088.414-.562.672-1.08.06-.102.211-.396.194.021.673.168 1.06.381.612.32-.773.444-1.06.47-1.044.305-.515.08.12-.01-.027.02.112.025.029.016-.14-.04-.114.01-.105.044-.084.074-.06.1-.024.11.01.114.044.104.075.086.097.058.112.026.023.02.121-.01h.008l.045.001.113.026-.06-.035.013-.002.127.043-.043-.051h.016l.103.04.038.046.052.029.059.014.056-.008.055-.024.045-.037.031-.05.014-.059-.002-.016.904-.236 1.194-.498.123-.055.847-.46.34-.255.106-.091.072-.12.03-.136.009-.158-.014-.14-.054-.128-.094-.105-.31-.248-.12-.073-.779-.408-1.06-.379-.292-.072.893-.705.105-.094.786-.77.072-.119.23-.408.032-.135-.014-.138-.072-.18-.057-.13-.09-.102-.12-.073-.235-.084-.137-.029-.37.004-.138.014-.457.08-.476.16-.127.055-.487.279-.105.09-.53.52-.234.34-.262-.417-.082-.094-.416-.373-.101-.06-.547-.244-.043-.008v-.002l-.07-.041-.364-.235-.093-.02-1.955-.292-1.588-.164-.03-.072-.093-.108-.12-.068-.134-.031-.14.013-.065.031-.127.055-.104.09-.004.006-1.25-.129-2.41-.273-.848-.108zm-9.213.763.006.004.424.143.135.043.228.03-.091.042-.27.184-.11.084-.08.113-.04.135-.028.105v.051l-.086-.486zm9.33.069h.114l.85.068 2.411.235 1.082.1-.01.107-.011.138-.006.02-.103.26-.02.039-.1.168-.021.101.004.033-.229.57-.369.9-.342-.386-.091-.105-.54-.393-.62-.396-.637-.404-.596-.399-.482-.375zm-5.878.96-.014.11.06-.088-.056.13-.022.038-.002-.08zm19.445.13h.004l-.666.656-.496.39.015-.07-.023-.054-.01-.084-.033-.08-.057-.067-.074-.043-.053-.014.205-.2.414-.235.393-.133zm-4.397.332.002.025.04.096.07.078.09.053.1.023.103-.01.093-.04.079-.13.044-.039.29.297.189.348.068.351-.058.35-.149.234-.363.243-.543.185-.584.084-.543-.027-.371-.112-.211-.138-.094-.15-.015-.14.049-.2.154-.258.351-.381.475-.36.59-.326zM7.486 2.94l-.095.002-.092.032-.07.105-.067.05.006-.017.057-.08-.64.647L4.83 5.54 2.225 8.472.854 10.09l-.276.355-.015-.021-.086-.06-.1-.028-.104.002-.1.033-.081.065-.06.084-.032.1.004.103.057.086.056.12.014.124-.027.092.03.09-.001.05.064.082.088.063.1.03.107-.005.057.008.107-.037.086-.014.074-.021.098-.079.106-.115.41-.552.97-1.186.077.055.1.03.103-.005.037-.053.082-.03.068-.052.026-.047.039-.056.03.027.554.621-.077-.1.577.735.414.514.068.09.252.183.086.06.101.032.131-.002.098-.004.092-.031.078-.059.03-.111.048-.069.025-.078-.07-.158v-.058l-.02-.055-.035-.045-.048-.035-.055-.018h-.06l-.05.02-.083-.082-.327-.46-.545-.751-.074-.1-.531-.644-.244-.26-.027-.03L5.352 6.04l1.72-1.887.598-.687.055-.08.03-.092-.003-.1-.031-.09-.06-.078-.08-.056zm.06.555-.066.05.114-.023-.092.034-.053.002zm.186.252.024.129v.025l-.022-.058zm32.864.014-.086.008-.08.035-.067.054-.029.047-.08.102-.15.115-.053.088-.026.103.01.104.041.094.07.08.004.002-.029.093-.027.124-.203.91-.055.873.012.135.086.505.078.198.054.129.092.103.117.104.12.07.134.03h.287l.133-.013.559-.177-.164.385-.49.916-.827 1.445-.066.101-.156.19-.104.15-.023.098-.008.082.01.1.04.093.067.076.086.053.1.022.101-.01.094-.04.074-.068.266-.46.047-.082.808-1.545.465-.922.246-.51.256-.379.875-.34 1.147-.441.332-.135h.002l.1-.045.085-.074.06-.098.024-.11-.01-.114-.045-.104-.074-.084-.097-.058-.112-.028-.113.014-.09.053-.043.017.03-.025.103-.045-.344.094-1.154.406-1.479.54-.724.204h-.022l-.086-.418.024-.809.162-.873.094-.39.027-.117.004-.186-.01-.111-.045-.073-.049-.039-.037-.088-.064-.07h-.047l-.076-.045zm-32.873.146.03.02v.021zm27.736.172-.13.256-.085.146-.058.051-.07.121-.016.063-.008.03-.365.64-.18.27.713-1.288zm5.336.133-.065.055.012-.026zM11.787 6.129l.102.03-.037.009.087.062.065.082-.063-.042.03.093-.086-.101zm12.967.715a.4.4 0 0 0-.057.01 1 1 0 0 0-.207.074c-1.046.482-2.167 1.168-3.152 1.826l.006-.008.049-.092.015-.103-.017-.104-.047-.092-.074-.074-.092-.047-.104-.015-.103.015-.543.274-.01-.006-.1-.016-.093.016-1.08.408-3.104 1.254-.039-.076-.1-.1-.125-.064-.138-.02-.137.024-.213.04-.363.112-.405.152-.359.16-.053.028-.097.023-.219.063-.068.027-.123.065-.1.097-.063.125-.023.139.023.137.063.125.047.045.012.027-.053.053-.018.033-.084.086-.072.127-.063.125-.023.137.023.138.063.123.1.1.105.072.072.037-.01.057.024.137.016.08-.303.324-.033.006.02-.131-.02-.139-.065-.123-.1-.1-.124-.064-.137-.02-.139.02-.261.049-.399.127-.062-.031-.098-.016-.096.016-.23.039-.574.203-.663.263-.363.15-.111.06-.086.09-.059.109-.02.125.02.125.059.11.031.03-.105.053-.1.102-.064.123-.022.138.024.137.062.123.1.1.123.064.138.022.137-.022.002-.002.096-.035.002-.002.119-.043.693-.205.008.016.1.097.125.063.136.023.137-.023.031-.01.125.055.108-.018.093-.05.075-.075.023-.047.154-.052.112.068-.315.168-.072.07-.047.094-.014.103.014.1.047.092.072.072.094.049.102.016.101-.018.09-.047.29-.209-.061.319-.29.457-.056.113-.37.963-.019.119-.043.437-.271.108-.12.06-.464.336-.098.098-.176.2-.185.019-.092.047-.072.074-.05.094-.015.101.016.104.006.01-.045.05-.72 1.07-.481.977-.063.12-.2.83-.02.13.003.074-.14.303-.051.104-.02.109-.002.37.02.105.047.095.248.221.068.068.088.045.26.09.373.309.102.05.601.239.106.013.752.059.85-.137.081-.013.8-.26.102.05.137.022.139-.021.123-.063.1-.1.064-.124.02-.137-.022-.139-.062-.123-.098-.1h-.002l-.002-.001-.002-.002-.01-.012-.052-.092-.07-.152-.126-.389-.086-.543.092-.094.147-.23.062-.125.125-.35.383.25.105.057.688.307.242.101-.168-.002-.103.016-.094.049-.072.072-.047.094-.016.101.016.106.047.093.076.073.091.048.104.016.34-.105.084-.016.248-.057.014.069.125.3.062.125.1.096.129.113.123.063.125.055.097.039.137.02.139-.02.084-.02.125-.06.097-.102.117-.17.063-.125.176-.463.16-.685.021-.137.08-.639.036-.449v-.285l-.034-.162-.021-.135-.063-.121-.052-.062-.002-.002.469-.047 1.902-.266.137-.021 1.195-.23-.024.626-.035 1.424.004.992-1.29.459-.347.117.03-.02.053-.06.095-.15.21-.272-.1.1.18-.184h.001l.139-.021.125-.065.05-.045.1-.097.063-.125.021-.139v-.055l-.023-.138-.063-.123-.047-.047.028-.018.055-.008.052-.027.041-.04.028-.054.01-.056-.01-.057-.028-.05-.04-.042-.053-.027-.057-.01-.156-.058-.084.011-.29.078-.087.045-.346.215-.074.074-.096.1-.074.012-.092.047-.072.072-.047.092-.016.103.012.08-.012.026-.004.01-.066.035-.072.074-.05.094-.015.101.016.104.049.093.004.004-.01.04-.028.062.022-.125-.03.047-.019.127.02.13.06.118-.002.02.096.095.12.062.017.002-.682.235-1.152.342.119-.018-.623.123-.008-.018-.043-.04-.053-.028-.06-.01-.06.01-.257.057-.072.039-.174.054-.068.069-.043.086-.016.095.016.094.043.086.015.092.077.074.093.047.108.02.351.03.774-.112.119-.02 1.162-.309 1.506-.48 1.164-.39.057.11.1.1.075.067.125.062.137.024h.094l.139-.024.12-.058.124-.063.144-.133.098-.1.144-.197.063-.125.086-.171.02-.14-.014-.093-.024-.137-.062-.123-.1-.1-.125-.064-.137-.02-.248.034-.054.008-.002-.715.033-1.424.027-.808.797-.194.242-.101.125-.065.098-.098.064-.123.022-.138-.021-.139-.065-.125-.1-.096-.123-.064-.074-.027-.137-.022-.16-.006-.205.008-.26.022-.287.02-.142.005-.043-.024-.125-.062-.063-.02-.136-.02-.057-.001-.139.021-.049.018-.125.064-.1.1-.028.031-.067.123-.02.14.018.108-1.13.217-1.842.256-1.24.127-.635.1-.137.02-.242.105-.125.062-.098.1-.076.095-.065.125-.021.137-.018.149.022.33.07.677.063.477-.309-.139-.676-.29-.387-.214-.158-.183.045-.213.022-.139.011-.115.147.02.058.01.06-.01.052-.028.04-.043.026-.05.012-.06-.012-.058-.025-.052-.041-.041-.055-.026-.215-.08.06-.555.054-1.164.037-.84.021-.304.12-.2.046-.042-.115.058.135-.084.17-.086.193-.082.186-.094.07-.052.021.004.102-.016.09-.047.072-.07-.004-.07.04-.08.013-.086-.014-.088-.02-.008-.037-.076-.058-.059-.076-.037-.082-.014-.084.014-.035.008-.077.04-.082.014.086-.044-.138.03-.147.034-.012-.08-.03-.067-.061-.125-.055-.08v-.002l-.057-.152-.054-.197.252-.342.21-.316.122.017.136-.02.278-.077.271-.104.12.063.138.02.135-.022h.002l.023-.008.025-.01.22-.072.454-.158.35-.038.053.065.117.123.08.08.102.053.11.017.114-.017.102-.053-.004-.027.072-.075.035-.068.076.041.139.02.139-.02.13-.062.282-.15.181-.087.399-.031.055.027.136.024.041-.004.137-.024.043-.011.04-.018.065-.035 2.383-.186a.55.55 0 0 0 .551.9 1 1 0 0 0-.162.138.43.43 0 0 0-.1.216.43.43 0 0 0 .041.237 1 1 0 0 0 .137.197 1.2 1.2 0 0 0 .488.352c.173.072.344.103.471.119.153.02.274.027.37.037l.06.008-.188.09-.086.046-.123.063-.1.1-.064.124-.021.137.021.139.065.125.097.096.125.064.137.021.139-.021.004.01.1.1.08.054.122.064.139.024.18-.004.136-.021.311-.09.393-.166.123-.065.324-.174.148-.123.102-.1.062-.122.004-.018c.73.092 1.275.13 1.854.133a.55.55 0 0 0 .006-1.1c-.624-.003-1.208-.046-2.125-.175l-.032-.032-.084-.076-.125-.062-.07-.012.02-.162-.022-.137-.033-.133-.065-.123-.084-.097-.076-.079a8 8 0 0 0 .246-.189 2 2 0 0 0 .15-.143.6.6 0 0 0 .147-.338 1 1 0 0 0 0-.105l2.065-.137a.4.4 0 0 0 .138.348.43.43 0 0 0 .2.094 1 1 0 0 0 .105.013 2 2 0 0 0 .299-.013 2.6 2.6 0 0 0 .44-.098 1 1 0 0 0 .193-.082q.15-.066.252-.121a1 1 0 0 0 .078-.045q.303-.052.6-.096c.457-.067.869-.124 1.287-.199l.015.03.074.074.094.048.092-.035.047.035.084.13.039.128-.006.031.018.102.046.094.012.012.162.543.637 2.439.027.05.04.042.052.025.057.01.058-.01.051-.023.041-.043.027-.053.01-.057-.01-.056-.5-2.485-.003-.015.128.129-.07-.067.217.29.219.366.273.663.256 1.013-.174.184-.043.04-.025.054-.012.054.012.059.025.053.043.04.051.028.059.008.056-.008.045-.023.01 1.26-.065.42-.185.23-.076.074.08-.053-.035.033-.075.047-.007.04-.043.052.015.05-.011.056.011.054.041.047.037.018.06.037.038.027.02.053.013.004-.043.283-.347.334-1.215 1.098-.076.064-.01-.545-.012-.562.453-.018.139-.021.123-.063.1-.1.064-.123.022-.138.005-.051-.02-.139-.064-.125-.1-.1-.122-.062-.39-.082-.329-.09h-.002l-.018-.037-.1-.097-.122-.063-.139-.023-.139.023-.123.063-.1.1-.013.025-.062.123-.02.119-1.273-.01-1.254-.098-.596-.15-.227-.11-.142-.101-.045-.045-.125-.062-.137-.022-.138.022-.123.062-.1.102-.065.123-.02.138.02.135.028.057.06.15.08.252.122.385.162.564.138.63.028.437-.008-.018-.043-.043-.05-.025-.058-.008-.058.01-.652.24-.68.203-.522.086-.574-.078-.943-.277-.463-.114-.176-.02-.082-.015-.078-.012-.041-.056-.104.015-.093.047-.075.076-.046.092-.016.106.016.101.048.096.075.072.093.047.104.02.043-.063.056-.01.108.028.443.175.938.327.103.015.668.094.104-.016.61-.142.65-.291.601-.397.053-.025.04-.04.02-.04.002.04-.058.532-.084.438-.07.318-.02-.02-.053-.025-.06-.01-.06.01-.054.027-.043.043-.025.053-.01.059.008.06.027.055.018.16.064.16.069.067.035.03.002.018.062.125.098.098.125.063.139.021.11-.017.064.027.11.017.587.088.86-.013 1.054-.098.84-.066.129.005.002.01.062.125.076.104.1.097.125.065.064.012.139.021.137-.021.052-.028.123-.06.022-.022.127.213.072.037.082.014.082-.016.192-.015.088-.045.068-.07.248-.31.049-.097.388-.861.594-2.12.258-1.599.541-.611.025-.051.002-.016.184.106 1.172 1.181.373.872-.28.767-.685 1.07-.539.688-.225.217-.035-.024-.05-.015-.057-.006-.059.006-.053.017-.04.028-.028.03-.156.227-.014.051-.064.139.013.062.043.055.07.045.087.027.086.032.105.011.105-.011.094-.032.268-.138.08-.053.45-.383.624-.748.059-.068.718-1.065.338-.851.022-.086-.022-.086-.406-.977-.06-.078-1.254-1.25-.098-.06-.498-.276-.12-.039-.13-.014-.365-.011h-.01l-.012-1.639-.017-.11.062-.005-.066-.012-.002-.006.068.018.098-.018.086-.043.068-.07.045-.086.016-.098-.018-.095-.043-.086-.068-.07-.032-.014.055-.282.018-.11-.04-.643-.02-.12-.122-.486-.055-.11-.197-.36-.264-.32-.345-.308-.08-.078-.385-.248-.08-.033a.4.4 0 0 0 .14-.17.7.7 0 0 0 .204-.166.388.388 0 0 0-.57-.525l-.007.002h-.054c-.003-.06-.005-.14-.016-.24a1 1 0 0 0-.031-.172.8.8 0 0 0-.068-.168l.05-.034c.233-.16.61-.452.682-.507a.388.388 0 0 0-.469-.62h-.002c-.09.07-.413.321-.629.471a1 1 0 0 0 .047-.197.8.8 0 0 0-.078-.484.8.8 0 0 0-.107-.155.6.6 0 0 0-.168-.142.6.6 0 0 0-.217-.041 11 11 0 0 0-.844-.006 1 1 0 0 0-.09-.084.7.7 0 0 0-.197-.115 1 1 0 0 0-.186-.045l-.011-.002a.39.39 0 0 0-.364-.194 1 1 0 0 0-.103.012 7 7 0 0 0-.703.17 1 1 0 0 0-.111.045.5.5 0 0 0-.102.07l-.006.006c-.41.104-.834.196-1.26.307a.32.32 0 0 0-.076-.176.4.4 0 0 0-.135-.098.8.8 0 0 0-.324-.043c-.585.018-1.11.088-1.566.114q-.275.014-.508.011a4 4 0 0 0 .205-.722 2 2 0 0 0 .02-.489 1.44 1.44 0 0 0-.254-.699.4.4 0 0 0-.18-.129.4.4 0 0 0-.164-.021m16.058.236.004.004.055.129zm-30.94.81.071.048.065.085-.078-.064zm14.298.424a3 3 0 0 1-.127.344l-.057.139a.39.39 0 0 0-.27.402l-.857.127-.562.11a26 26 0 0 1 1.873-1.122m-3.024.567c-.506.343-.971.675-1.365.96l.524-.417.246-.274.062-.062zM3.08 8.982l-.096.073.004-.02.051-.039zm-.074.073-.022.008V9.06zm21.808.617c.24.014.493.015.772.002a2 2 0 0 1-.277.119 2 2 0 0 0-.172.08 1 1 0 0 0-.147.094.5.5 0 0 0-.146.174.44.44 0 0 0-.02.367l.022.043-.159.062a3 3 0 0 1-.171.057l.007-.022a.6.6 0 0 0 .041-.16l.006-.049a2 2 0 0 1 .051-.224l.07-.147.061-.117.02-.129-.004-.027v-.002zm-1.257.267-.018.073-.062.037-.327.146-.478.215-.492.248-.125.063-.15.097-.04-.074-.097-.1-.125-.062-.14-.021-.136.021-.125.063-.027.02-.276.218-.52.396-.108.08-.707-.02c.342-.254.848-.633 1.45-1.058l.288-.045 1.517-.23zm7.435.082-.023.061a1 1 0 0 0-.051.25.6.6 0 0 0 .018.17c-.1.031-.2.072-.274.1a2 2 0 0 1-.207.074l-.035.008-.123.013a2 2 0 0 0-.195.014l-.038.006.045-.059a1.5 1.5 0 0 0 .184-.322 1.2 1.2 0 0 0 .074-.281q.313-.027.625-.034m-13.99.211-.074.047-.073.075-.115.1-.05.099-.018.113.02.111.05.104.08.08.045.059.108.054.119.02.117-.022.27-.033.56-.156.488-.238.2-.026-.04.027a.55.55 0 0 0-.185.65l-.47-.02-.544-.063-.105.016-.092.05-.072.07-.301.036.002-.01-.022-.137-.062-.125-.1-.097-.074-.059-.123-.064-.139-.02-.232-.02-.045.004.012-.074-.018-.097.004-.02-.018-.117zm11.701.084c-.39.379-.76.765-1.101 1.174l-.135-.004a8 8 0 0 0-.39 0 4 4 0 0 0-.313.026 1 1 0 0 0-.178-.002l-.117.008q.11-.044.222-.084c.39-.137.85-.272 1.268-.452a1 1 0 0 0 .098-.05.3.3 0 0 0 .08-.077.3.3 0 0 0 .043-.101.6.6 0 0 0 .004-.233l-.02-.068q.27-.074.54-.137m-23.672.471.024.006-.002.004H5.05zm-.017.072L5 10.9l-.082.135.023-.078.047-.066-.1.043.079-.059zm-4.364.008.02.014.062.084-.05-.02.03.09-.034-.08zm39.647.09.012.027.01.102-.018-.084-.022.094zm-10.58.115v.016a.35.35 0 0 0 .054.185.4.4 0 0 0 .147.131q.085.046.186.059a2 2 0 0 0 .207.01v.002q.05 0 .097-.004c.255-.014.5-.068.733-.139q.205-.064.394-.143l.065-.007q.126-.021.23-.032a1 1 0 0 1 .108-.005q.001.06.007.138.003.072.02.158l.014.063q-.068 0-.141.004a2 2 0 0 0-.389.047l-.203.037-.182-.045-.103.015-.094.05-.056.056c-.282.045-.572.086-.9.135q-.258.036-.532.082a.5.5 0 0 0-.1-.022 1 1 0 0 0-.1-.01 2 2 0 0 0-.189.008l-.129.01a3 3 0 0 0 .188-.184q.056-.075.146-.162t.203-.181c.095-.081.209-.174.319-.272m-6.322.627-.016.1.021.139.063.123.062.074.098.097.123.063.027.01-.218.013-2.535.188.044-.027.454-.325.134-.111.13.021.179.022.137-.022.37-.085.473-.143zm-5.028.127-.035.014-.006-.012zm13.82.57.249.102.35.209-.095-.047.338.272.25.265.244.336.145.268.078.258-.103-.221-.051-.102-.293-.394-.268-.254-.068-.067-.23-.148-.202-.115-.152-.113-.078-.04-.059-.058-.025-.09zm-20.367.196-.043.05-.047.016-.02.006.038-.037zm-.148.037.014.043-.043.014zM24.33 13.99l.111.09.05.041-.009.076-.003.01-.295-.05-.092-.024zm-11.53.131-.029.018-.007-.004zm-.954 4.154.101.352.05.094.138.13-.01.317-.293 1.225-.197 1.41-.022.136.041.575-.068.035-.094.092-.056.117-.022.129.02.115-.002.014.021.07.033.078.01.025-.021.041-.014.104.004.03-.277.013-.655-.1-.478-.226-.002-.002-.323-.303-.162-.392v-.547l.028-.053.898-1.445.858-1.334.253-.377.07-.034.07-.07.042-.086.05-.078zm15.81.914.096.024-.04.053-.026.027zm.826.13.95.074 1.34.01.01.552.019 1.027-.04.04-.046.093-.016.104.057.04.01.048.013.082.008.056.024.05.003.192.045.838h-.011l-.84.096-1.055.129-.86.053-.353-.03.237-.845.271-.98.172-.721.074-.434.022-.135.005-.174-.019-.129zm-11.994.068h.008l-.023.031-.055.094-.07.066-.04.084.06-.06-.052.062-.058.057-.065.045-.078.039-.045.09-.015.101.015.1.045.09.074.074.09.047.102.013.1-.015.042-.022-.02.246-.064.518-.156.668-.017.049-.096-.508-.113-.858-.073-.68-.015-.241.021-.01-.021.002zm-.588.092-.002.001-.044.006zm12.323.289-.08.082.084-.043.082-.022-.114.057-.052.008-.053.007.058-.039zm4.968.097-.05.33-.555 2.133-.33.836-.133.227-.043-.022-.039-.02.01-.062-.022-.137-.039-.107-.064-.123-.098-.123-.068-.068-.055-1.043-.008-.413.42-.347zm-16.09.012-.113.057-.103.015.072-.027.078-.03zm-.257.059-.024.023-.013-.002zm.025.02.055.02-.072-.011.013-.008zm12.137.93-.14.022-.124.065-.035.02-.098.099-.062.125-.024.137.024.138.012.067.062.123.063.072.1.1.075.039.045.044-.004.155-.015.101.017.108.051.056.045.086.068.07.088.044.096.013.096-.013.086-.045-.004-.055.058-.059.037-.074.014-.08-.014-.082-.08-.021-.027-.053-.043-.041-.004-.002.04-.018.025-.013.064.064.045.084.004-.072.017.105-.017.104.045-.158.101-.27.104-.234.008-.014.027-.066.059-.118.02-.13-.02-.127-.06-.118-.093-.091-.117-.059-.129-.02-.129.02-.105.055-.115-.06zm-9.162.241v.008l-.008.002v-.004zm.002.02.008.042-.004.03-.012-.067zm9.38.232v.006l-.029.056-.029.03.014.011-.01.055-.014.018-.017-.032.027-.052-.031-.01.074-.074zm-9.898.674.006.045-.021.129-.002-.055zm9.768 0 .043.008-.028.027-.027.05-.01.061.01.057-.06.068-.012-.08.011-.082.038-.072zm-17.473.5-.027.05-.086.086-.033.069v-.006l.033-.063.025-.048zm.02.226-.008.053v.047l.076-.074-.008.04-.066.067.02.05.058-.058.039-.02.03.042-.003.023-.052.03-.041.04-.092.045-.026.026-.017-.12.017.036.02-.121zm.017.409.026.044-.047-.025zm.434.085h.004l.027.016-.025.025-.004-.027-.002-.01zm.062.032.024.011-.041.006zm20.084.035-.094.06-.007-.004.013-.013zm2.477.074h.002l-.002.006zm-2.479.031h.004l.074.037zm-16.023.168v.002l-.014.03-.055.027zm-.03.06-.013.028-.068.069z"/></svg>